# AST/ASF file generated using VICON BodyLanguage
# -----------------------------------------------
:version 1.10
:name VICON
:units
  mass 1.0
  length 0.45
  angle deg
:documentation
   .ast/.asf automatically generated from VICON data using
   VICON BodyBuilder and BodyLanguage model FoxedUp or BRILLIANT.MOD
:root
   order TX TY TZ RX RY RZ
   axis XYZ
   position 0 0 0  
   orientation 0 0 0 
:bonedata
  begin
     id 1 
     name lhipjoint
     direction 0.610259 -0.730986 0.305356 
     length 2.50941 
     axis 0 0 0  XYZ
  end
  begin
     id 2 
     name lfemur
     direction 0.34202 -0.939693 0  
     length 7.48822  
     axis 0 0 20  XYZ
    dof rx ry rz
    limits (-160.0 20.0)
           (-70.0 70.0)
           (-60.0 70.0)
  end
  begin
     id 3 
     name ltibia
     direction 0.34202 -0.939693 0   
     length 7.60141   
     axis 0 0 20   XYZ
    dof rx
    limits (-10.0 170.0)
  end
  begin
     id 4 
     name lfoot
     direction 0.0673488 -0.185039 0.980421   
     length 2.04049   
     axis -90 7.62852e-016 20   XYZ
    dof rx rz
    limits (-45.0 90.0)
           (-70.0 20.0)
  end
  begin
     id 5 
     name ltoes
     direction 1.5356e-011 -4.21729e-011 1   
     length 1.02897   
     axis -90 7.62852e-016 20   XYZ
    dof rx
    limits (-90.0 20.0)
  end
  begin
     id 6 
     name rhipjoint
     direction -0.57612 -0.754205 0.315056   
     length 2.43216  
     axis 0 0 0  XYZ 
  end
  begin
     id 7 
     name rfemur
     direction -0.34202 -0.939693 0   
     length 7.42799   
     axis 0 0 -20   XYZ
    dof rx ry rz
    limits (-160.0 20.0)
           (-70.0 70.0)
           (-70.0 60.0)
  end
  begin
     id 8 
     name rtibia
     direction -0.34202 -0.939693 0   
     length 7.69484   
     axis 0 0 -20   XYZ
    dof rx
    limits (-10.0 170.0)
 end
 begin
     id 9 
     name rfoot
     direction -0.111837 -0.30727 0.945028   
     length 2.15769  
     axis -90 -7.62852e-016 -20   XYZ
    dof rx rz
    limits (-45.0 90.0)
           (-20.0 70.0)
  end
  begin
     id 10 
     name rtoes
     direction -1.53539e-011 -4.21878e-011 1   
     length 1.07391   
     axis -90 -7.62852e-016 -20   XYZ
    dof rx
    limits (-90.0 20.0)
  end
  begin
     id 11 
     name lowerback
     direction 0.00552624 0.990109 -0.140195   
     length 2.12403   
     axis 0 0 0   XYZ
    dof rx ry rz
    limits (-20.0 45.0)
           (-30.0 30.0)
           (-30.0 30.0)
  end
  begin
     id 12 
     name upperback
     direction 0.00361898 0.999976 -0.00584723   
     length 2.13232   
     axis 0 0 0   XYZ
    dof rx ry rz
    limits (-20.0 45.0)
           (-30.0 30.0)
           (-30.0 30.0)
  end
  begin
     id 13 
     name thorax
     direction -0.000331275 0.998253 0.0590847   
     length 2.17688   
     axis 0 0 0   XYZ
    dof rx ry rz
    limits (-20.0 45.0)
           (-30.0 30.0)
           (-30.0 30.0)
  end
  begin
     id 14 
     name lowerneck
     direction -0.0561561 0.979832 0.19177   
     length 1.64159   
     axis 0 0 0   XYZ
    dof rx ry rz
    limits (-20.0 45.0)
           (-30.0 30.0)
           (-30.0 30.0)
  end
  begin
     id 15 
     name upperneck
     direction 0.0827153 0.979385 -0.184293   
     length 1.68939   
     axis 0 0 0   XYZ
    dof rx ry rz
    limits (-20.0 45.0)
           (-30.0 30.0)
           (-30.0 30.0)
  end
  begin
     id 16
     name head
     direction 0.0278583 0.995936 -0.0856488  
     length 1.70207  
     axis 0 0 0   XYZ
    dof rx ry rz
    limits (-20.0 45.0)
           (-30.0 30.0)
           (-30.0 30.0)
  end
  begin
     id 17 
     name lclavicle
     direction 0.950993 0.301131 -0.0702275  
     length 3.41652  
     axis 0 0 0   XYZ
    dof ry rz
    limits (-20.0 10.0)
           (0.0 20.0)
  end
  begin
     id 18 
     name lhumerus
     direction 1 -4.48981e-011 -3.9662e-029   
     length 5.32955   
     axis 180 -30 -90   XYZ
    dof rx ry rz
    limits (-60.0 90.0)
           (-90.0 90.0)
           (-90.0 90.0)
  end
  begin
     id 19
     name lradius
     direction 1 -4.48925e-011 -9.0549e-027   
     length 3.69232   
     axis 180 -30 -90   XYZ
    dof rx
    limits (-10.0 170.0)
  end
  begin
     id 20
     name lwrist
     direction 1 -4.49007e-011 -1.49005e-026   
     length 1.84616   
     axis 9.0955e-015 90 90   XYZ
    dof ry
    limits (-180.0 0.0)
 end
  begin
     id 21 
     name lhand
     direction 1 -4.49016e-011 -2.98023e-026   
     length 0.536598   
     axis 1.90115e-014 90 90   XYZ
    dof rx rz
    limits (-90.0 90.0)
           (-45.0 45.0)
  end
  begin
     id 22 
     name lfingers
     direction 1 -4.48924e-011 -5.9578e-026   
     length 0.432619   
     axis 3.80223e-014 90 90   XYZ
    dof rx
    limits (0.0 90.0)
  end
  begin
     id 23
     name lthumb
     direction 0.707107 -6.34947e-011 0.707107   
     length 0.621157   
     axis -90 45 -3.84942e-014   XYZ
    dof rx rz
    limits (-45.0 45.0)
           (-45.0 45.0)
  end
  begin
     id 24 
     name rclavicle
     direction -0.955495 0.276497 -0.102848   
     length 3.36357  
     axis 0 0 0   XYZ 
    dof ry rz
    limits (-10.0 20.0)
           (-20.0 0.0)
  end
  begin
     id 25 
     name rhumerus
     direction -1 -4.48961e-011 3.30983e-027  
     length 5.23431   
     axis 180 30 90   XYZ
    dof rx ry rz
    limits (-90.0 60.0)
           (-90.0 90.0)
           (-90.0 90.0)
  end
  begin
     id 26 
     name rradius
     direction -1 -4.48965e-011 -6.63263e-027   
     length 3.55301   
     axis 180 30 90   XYZ
    dof rx
    limits (-10.0 170.0)
  end
  begin
     id 27 
     name rwrist
     direction -1 -4.48942e-011 -1.48958e-026   
     length 1.77651   
     axis 9.0955e-015 -90 -90   XYZ
    dof ry
    limits (-180.0 0.0)
  end
  begin
     id 28
     name rhand
     direction -1 -4.48977e-011 -2.97966e-026   
     length 0.772522   
     axis 1.90115e-014 -90 -90   XYZ
    dof rx rz
    limits (-90.0 90.0)
           (-45.0 45.0)
  end
  begin
     id 29
     name rfingers
     direction -1 -4.49135e-011 -5.96389e-026   
     length 0.622827   
     axis 3.80223e-014 -90 -90   XYZ
    dof rx
    limits (0.0 90.0)
  end
  begin
     id 30
     name rthumb
     direction -0.707107 -6.34969e-011 0.707107   
     length 0.894259   
     axis -90 -45 3.84942e-014   XYZ
    dof rx rz
    limits (-45.0 45.0)
           (-45.0 45.0)
  end
:hierarchy
  begin
    root lhipjoint rhipjoint lowerback
    lhipjoint lfemur
    lfemur ltibia
    ltibia lfoot
    lfoot ltoes
    rhipjoint rfemur
    rfemur rtibia
    rtibia rfoot
    rfoot rtoes
    lowerback upperback
    upperback thorax
    thorax lowerneck lclavicle rclavicle
    lowerneck upperneck
    upperneck head
    lclavicle lhumerus
    lhumerus lradius
    lradius lwrist
    lwrist lhand lthumb
    lhand lfingers
    rclavicle rhumerus
    rhumerus rradius
    rradius rwrist
    rwrist rhand rthumb
    rhand rfingers
  end

#!OML:ASF F:\VICON\USERDATA\INSTALL\rory3\rory3.ASF
:FULLY-SPECIFIED
:DEGREES
1
root -0.0580533 18.1633 1.68465 3.53616 -2.08522 0.983826
lowerback 5.81441 -0.751241 -2.08833
upperback -1.52266 -1.13793 0.532198
thorax -4.78967 -0.494734 1.83615
lowerneck -17.7633 -11.146 -16.2319
upperneck 20.6678 -14.5561 13.6365
head 12.0011 -6.42444 5.25012
rclavicle 8.92667e-015 1.47101e-014
rhumerus -33.9073 -13.3591 -81.6091
rradius 30.0531
rwrist 6.93708
rhand -14.3167 10.2812
rfingers 7.12502
rthumb 11.8237 -19.365
lclavicle 8.92667e-015 1.47101e-014
lhumerus -37.7035 9.43835 81.6382
lradius 35.2035
lwrist -4.72105
lhand -18.0133 24.1291
lfingers 7.12502
lthumb 8.2575 53.9477
rfemur -7.09489 3.18599 22.2047
rtibia 22.2733
rfoot -14.1125 -1.77393
rtoes 0.658058
lfemur -0.179987 -0.12673 -23.2344
ltibia 8.88609
lfoot -7.03335 1.1299
ltoes -7.70992
2
root -0.0607726 18.1648 1.6795 3.61078 -2.10755 0.920309
lowerback 5.82288 -0.749627 -2.03219
upperback -1.55374 -1.13144 0.54272
thorax -4.82798 -0.492219 1.81544
lowerneck -17.7642 -11.155 -16.1795
upperneck 20.6637 -14.5787 13.6175
head 11.9973 -6.43249 5.22957
rclavicle 4.9075e-015 -1.51076e-014
rhumerus -33.8988 -13.4305 -81.6237
rradius 30.0666
rwrist 7.03973
rhand -14.3788 10.2803
rfingers 7.12502
rthumb 11.7638 -19.3694
lclavicle 4.9075e-015 -1.51076e-014
lhumerus -37.7098 9.33228 81.6696
lradius 35.3068
lwrist -4.6402
lhand -17.9239 24.2519
lfingers 7.12502
lthumb 8.34374 54.0671
rfemur -7.1829 3.25171 22.2866
rtibia 22.2451
rfoot -14.0888 -1.80555
rtoes 0.830903
lfemur -0.324271 -0.105076 -23.1541
ltibia 8.95762
lfoot -7.08692 1.11168
ltoes -7.94355
3
root -0.0623828 18.1648 1.67636 3.62516 -2.11648 0.922043
lowerback 5.87061 -0.761618 -2.02609
upperback -1.57077 -1.14845 0.535325
thorax -4.87232 -0.500188 1.80714
lowerneck -17.7921 -11.1482 -16.1265
upperneck 20.6387 -14.5723 13.6018
head 11.9858 -6.4261 5.21486
rclavicle -3.83344e-014 -1.39149e-014
rhumerus -33.9435 -13.4131 -81.6752
rradius 30.1602
rwrist 7.03443
rhand -14.4454 10.2707
rfingers 7.12502
rthumb 11.6996 -19.3826
lclavicle -3.83344e-014 -1.39149e-014
lhumerus -37.7445 9.2299 81.7191
lradius 35.4393
lwrist -4.42775
lhand -17.7129 24.6163
lfingers 7.12502
lthumb 8.54743 54.4233
rfemur -7.23143 3.29331 22.2924
rtibia 22.2861
rfoot -14.0862 -1.85327
rtoes 0.956876
lfemur -0.274753 -0.0961735 -23.1504
ltibia 8.80729
lfoot -6.98859 1.10928
ltoes -7.8362
4
root -0.0637953 18.1646 1.67656 3.59643 -2.12781 1.01053
lowerback 5.90198 -0.784468 -2.1103
upperback -1.55532 -1.18669 0.521038
thorax -4.87101 -0.516983 1.8438
lowerneck -17.934 -11.1416 -16.1035
upperneck 20.7153 -14.5461 13.5644
head 12.0325 -6.40949 5.19905
rclavicle 6.20581e-015 -7.35503e-015
rhumerus -33.9436 -13.26 -81.7357
rradius 30.2396
rwrist 6.95608
rhand -14.3364 10.2891
rfingers 7.12502
rthumb 11.8047 -19.3582
lclavicle 6.20581e-015 -7.35503e-015
lhumerus -37.7106 9.17487 81.7623
lradius 35.4602
lwrist -4.25786
lhand -17.7032 24.7762
lfingers 7.12502
lthumb 8.5568 54.5828
rfemur -7.21006 3.23201 22.1928
rtibia 22.3016
rfoot -14.1059 -1.80561
rtoes 0.846498
lfemur -0.211073 -0.0886606 -23.245
ltibia 8.75338
lfoot -6.93876 1.10778
ltoes -7.79899
5
root -0.0660343 18.1646 1.67606 3.58255 -2.12217 1.0724
lowerback 5.88506 -0.811643 -2.19325
upperback -1.5146 -1.22837 0.526586
thorax -4.81527 -0.53625 1.89936
lowerneck -18.106 -11.1356 -16.0431
upperneck 20.7856 -14.514 13.4847
head 12.0743 -6.39043 5.16102
rclavicle -9.70939e-015 -2.00773e-014
rhumerus -33.861 -13.1008 -81.8011
rradius 30.2549
rwrist 6.88415
rhand -14.2978 10.3184
rfingers 7.12502
rthumb 11.8419 -19.3268
lclavicle -9.70939e-015 -2.00773e-014
lhumerus -37.6492 9.2505 81.758
lradius 35.4816
lwrist -4.33057
lhand -17.7078 24.7254
lfingers 7.12502
lthumb 8.55235 54.5322
rfemur -7.19626 3.19681 22.1285
rtibia 22.3141
rfoot -14.1226 -1.78534
rtoes 0.644182
lfemur -0.174144 -0.0971912 -23.3071
ltibia 8.70557
lfoot -6.92776 1.10583
ltoes -7.92879
6
root -0.0698777 18.1648 1.67231 3.6197 -2.10257 1.04943
lowerback 5.85936 -0.827595 -2.19685
upperback -1.50619 -1.24762 0.562193
thorax -4.79015 -0.545598 1.93955
lowerneck -18.1987 -11.1167 -16.0738
upperneck 20.8372 -14.479 13.5198
head 12.1123 -6.36879 5.18498
rclavicle 3.98812e-015 -1.27222e-014
rhumerus -33.8088 -13.069 -81.7745
rradius 30.2532
rwrist 7.00781
rhand -14.3732 10.0482
rfingers 7.12502
rthumb 11.7692 -19.6011
lclavicle 3.98812e-015 -1.27222e-014
lhumerus -37.6005 9.20451 81.8135
lradius 35.5099
lwrist -4.25966
lhand -17.8568 24.754
lfingers 7.12502
lthumb 8.4085 54.5666
rfemur -7.24354 3.22508 22.1709
rtibia 22.3105
rfoot -14.1233 -1.83483
rtoes 0.555401
lfemur -0.22323 -0.117219 -23.2667
ltibia 8.69533
lfoot -6.93291 1.08363
ltoes -8.05508
7
root -0.0738887 18.166 1.66787 3.63961 -2.07566 0.988778
lowerback 5.92075 -0.840133 -2.15016
upperback -1.55612 -1.26097 0.596329
thorax -4.87663 -0.551346 1.95205
lowerneck -18.1546 -11.109 -16.1194
upperneck 20.8921 -14.4771 13.547
head 12.1312 -6.37029 5.20615
rclavicle -2.004e-014 -7.55382e-015
rhumerus -33.9317 -13.1721 -81.6712
rradius 30.3111
rwrist 7.37093
rhand -14.5217 9.37809
rfingers 7.12502
rthumb 11.6261 -20.2794
lclavicle -2.004e-014 -7.55382e-015
lhumerus -37.6361 9.20764 81.8011
lradius 35.493
lwrist -4.47208
lhand -18.2706 24.1454
lfingers 7.12502
lthumb 8.00918 53.9736
rfemur -7.27794 3.27535 22.2655
rtibia 22.2881
rfoot -14.0799 -1.92275
rtoes 0.451618
lfemur -0.297487 -0.141447 -23.1823
ltibia 8.75503
lfoot -6.96322 1.06096
ltoes -8.146
